<svg viewBox="0 0 58 58" xmlns="http://www.w3.org/2000/svg" xmlns:xlink="http://www.w3.org/1999/xlink" width="58.000000" height="58.000000" fill="none" customFrame="#000000">
	<defs>
		<g id="pixso_custom_effect_2">
			<effect x="0.000000" y="0.000000" visibility="visible" fill="rgb(108,99,255)" fill-opacity="1" effectType="dropShadow" stdDeviation="4" radius="0" />
		</g>
		<filter id="filter_2" width="58.000000" height="58.000000" x="0.000000" y="0.000000" filterUnits="userSpaceOnUse" customEffect="url(#pixso_custom_effect_2)" color-interpolation-filters="sRGB">
			<feFlood flood-opacity="0" result="BackgroundImageFix" />
			<feOffset dx="0.000000" dy="0.000000" in="SourceAlpha" />
			<feGaussianBlur stdDeviation="1.33333337" />
			<feColorMatrix type="matrix" values="0 0 0 0 0.423529 0 0 0 0 0.388235 0 0 0 0 1 0 0 0 1 0 " />
			<feBlend result="effect_dropShadow_1" in2="BackgroundImageFix" mode="normal" />
			<feBlend result="shape" in="SourceGraphic" in2="effect_dropShadow_1" mode="normal" />
		</filter>
	</defs>
	<g id="Add button">
		<g filter="url(#filter_2)">
			<circle id="Ellipse 3" cx="29" cy="29" r="25" fill="rgb(108,99,255)" />
		</g>
		<path id="Vector" d="M27.5 38.8916C27.5 39.2891 27.658 39.6704 27.9393 39.9514C28.2206 40.2325 28.6022 40.3904 29 40.3904C29.3978 40.3904 29.7794 40.2325 30.0607 39.9514C30.342 39.6704 30.5 39.2891 30.5 38.8916L30.5 29.8988L39.5 29.8988C39.8978 29.8988 40.2794 29.7409 40.5607 29.4598C40.842 29.1787 41 28.7975 41 28.4C41 28.0025 40.842 27.6213 40.5607 27.3402C40.2794 27.0591 39.8978 26.9012 39.5 26.9012L30.5 26.9012L30.5 17.9083C30.5 17.5108 30.342 17.1296 30.0607 16.8485C29.7794 16.5675 29.3978 16.4095 29 16.4095C28.6022 16.4095 28.2206 16.5675 27.9393 16.8485C27.658 17.1296 27.5 17.5108 27.5 17.9083L27.5 26.9012L18.5 26.9012C18.1022 26.9012 17.7206 27.0591 17.4393 27.3402C17.158 27.6213 17 28.0025 17 28.4C17 28.7975 17.158 29.1787 17.4393 29.4598C17.7206 29.7409 18.1022 29.8988 18.5 29.8988L27.5 29.8988L27.5 38.8916Z" fill="rgb(247,247,247)" fill-rule="evenodd" />
	</g>
</svg>
